<svg width="30" height="30" fill="none" xmlns="http://www.w3.org/2000/svg"><path d="M15 0C7.73 0 1.816 5.914 1.816 13.184v7.148a2.64 2.64 0 002.637 2.637h1.03a2.641 2.641 0 002.486 1.758 2.64 2.64 0 002.636-2.637v-7.15a2.64 2.64 0 00-2.636-2.636 2.641 2.641 0 00-2.486 1.758h-1.03c-.308 0-.604.053-.879.15v-1.03C3.574 6.884 8.7 1.759 15 1.759s11.426 5.125 11.426 11.426v1.03a2.623 2.623 0 00-.88-.152h-1.03a2.64 2.64 0 00-2.485-1.757 2.64 2.64 0 00-2.636 2.636v7.149a2.64 2.64 0 003.402 2.523 2.641 2.641 0 01-2.524 1.871h-2.788A2.64 2.64 0 0015 24.727a2.64 2.64 0 00-2.637 2.636A2.64 2.64 0 0015 30a2.64 2.64 0 002.485-1.758h2.788a4.4 4.4 0 004.395-4.394v-.88h.879a2.64 2.64 0 002.637-2.636v-7.148C28.184 5.914 22.269 0 15 0zM7.09 14.941a.88.88 0 011.758 0v7.149a.88.88 0 01-1.758 0v-7.15zm-2.637.88h.879v5.39h-.879a.88.88 0 01-.879-.879v-3.633a.88.88 0 01.88-.879zM15 28.241a.88.88 0 010-1.758.88.88 0 010 1.758zm7.91-6.152a.88.88 0 01-1.758 0V14.94a.88.88 0 011.758 0v7.149zm3.516-1.758a.88.88 0 01-.88.879h-.878v-5.39h.879a.88.88 0 01.879.878v3.633z" fill="#47443F"/></svg>