<svg width="30" height="30" fill="none" xmlns="http://www.w3.org/2000/svg"><g clip-path="url(#clip0)" fill="#47443F"><path d="M29.139 3.264a1.089 1.089 0 00-1.293.836l-.791 3.693A14.151 14.151 0 0014.842.797C7.036.797.685 7.147.685 14.954a1.089 1.089 0 002.178 0c0-6.605 5.374-11.979 11.979-11.979 4.306 0 8.234 2.3 10.36 5.963l-3.63-.778a1.089 1.089 0 10-.457 2.13l6.232 1.335a1.087 1.087 0 001.293-.837l1.336-6.232a1.09 1.09 0 00-.837-1.292zm-1.096 10.263a1.089 1.089 0 00-1.052 1.124 11.9 11.9 0 01-3.227 8.58 11.9 11.9 0 01-8.748 3.793 11.977 11.977 0 01-10.187-5.678l3.785 1.015a1.089 1.089 0 00.564-2.104l-6.156-1.65a1.09 1.09 0 00-1.334.77l-1.65 6.156a1.089 1.089 0 002.103.564l.928-3.46a14.15 14.15 0 0012.417 6.558 14.064 14.064 0 009.868-4.475 14.063 14.063 0 003.813-10.141 1.088 1.088 0 00-1.124-1.053z"/></g><defs><clipPath id="clip0"><path fill="#fff" d="M0 0h30v30H0z"/></clipPath></defs></svg>