<svg width="147" height="42" fill="none" xmlns="http://www.w3.org/2000/svg"><rect x="82" y="2" width="65" height="40" rx="3" fill="#69C9FF"/><path d="M1.207 12.583v-4.31h20.309v4.31h-7.57V33H8.777V12.583h-7.57zm29.319 20.78c-1.908 0-3.55-.387-4.926-1.16-1.369-.78-2.423-1.883-3.164-3.308-.74-1.433-1.11-3.127-1.11-5.083 0-1.908.37-3.582 1.11-5.023.74-1.44 1.783-2.564 3.127-3.369 1.353-.804 2.938-1.207 4.758-1.207 1.223 0 2.362.197 3.416.592a7.58 7.58 0 012.777 1.75c.797.781 1.417 1.763 1.86 2.946.442 1.176.664 2.552.664 4.13v1.412h-15.66v-3.187h10.818c0-.74-.16-1.397-.483-1.968a3.46 3.46 0 00-1.34-1.34c-.563-.33-1.22-.495-1.968-.495-.78 0-1.473.18-2.077.543a3.81 3.81 0 00-1.4 1.437 4.058 4.058 0 00-.52 1.992v3.03c0 .918.17 1.71.508 2.379a3.712 3.712 0 001.46 1.545c.628.363 1.373.544 2.234.544.572 0 1.095-.08 1.57-.242.475-.16.881-.402 1.22-.724a3.15 3.15 0 00.772-1.183l4.757.314a6.497 6.497 0 01-1.485 2.994c-.74.845-1.698 1.505-2.873 1.98-1.168.467-2.516.7-4.045.7zm20.248 0c-1.9 0-3.534-.403-4.902-1.208-1.36-.813-2.407-1.94-3.14-3.38-.724-1.442-1.086-3.1-1.086-4.975 0-1.9.366-3.566 1.099-4.999.74-1.44 1.79-2.563 3.15-3.368 1.361-.813 2.979-1.22 4.854-1.22 1.618 0 3.035.294 4.25.882 1.216.587 2.178 1.412 2.886 2.475.709 1.062 1.099 2.31 1.171 3.742h-4.853c-.137-.925-.5-1.67-1.087-2.233-.58-.572-1.34-.857-2.282-.857-.797 0-1.493.217-2.089.652-.587.426-1.046 1.05-1.376 1.871-.33.821-.495 1.815-.495 2.982 0 1.183.16 2.19.483 3.019.33.829.793 1.46 1.388 1.895.596.435 1.292.652 2.089.652.588 0 1.115-.12 1.582-.362a3.055 3.055 0 001.17-1.05c.315-.467.52-1.027.617-1.679h4.853c-.08 1.417-.467 2.665-1.159 3.743-.684 1.07-1.63 1.908-2.837 2.512-1.208.603-2.636.905-4.286.905zm16.719-11.085V33h-5.144V8.273h4.999v9.454h.217c.419-1.095 1.095-1.952 2.029-2.572.934-.628 2.105-.942 3.513-.942 1.288 0 2.411.282 3.369.845.966.556 1.714 1.357 2.246 2.403.539 1.038.805 2.282.797 3.73V33h-5.144V22.11c.008-1.144-.282-2.033-.87-2.669-.579-.636-1.392-.954-2.438-.954-.7 0-1.32.15-1.86.447-.53.298-.95.732-1.255 1.304-.298.563-.451 1.244-.46 2.04zm23.28.632V33h-4.841V9.727h4.704v8.898h.205c.394-1.03 1.03-1.837 1.909-2.42.879-.591 1.981-.887 3.307-.887 1.212 0 2.269.265 3.17.796.909.522 1.614 1.276 2.114 2.261.507.977.757 2.148.75 3.511V33H97.25V22.75c.008-1.076-.265-1.913-.818-2.511-.546-.599-1.31-.898-2.296-.898-.659 0-1.242.14-1.75.42-.5.28-.894.69-1.181 1.228-.28.53-.425 1.17-.432 1.92zm26.321 2.658V15.545h4.841V33h-4.648v-3.17h-.182a5.153 5.153 0 01-1.966 2.465c-.909.622-2.019.932-3.329.932-1.167 0-2.194-.265-3.08-.795-.886-.53-1.579-1.284-2.079-2.262-.493-.977-.743-2.147-.75-3.51V15.545h4.84v10.25c.008 1.03.285 1.844.83 2.443.545.598 1.277.897 2.193.897.584 0 1.129-.132 1.637-.397a3.128 3.128 0 001.227-1.205c.318-.53.473-1.185.466-1.966zM125.898 33V9.727h4.841v8.75h.147c.212-.47.519-.947.921-1.431.409-.493.939-.902 1.591-1.228.659-.333 1.477-.5 2.454-.5 1.273 0 2.447.334 3.523 1 1.076.66 1.936 1.655 2.58 2.989.643 1.326.965 2.989.965 4.989 0 1.946-.314 3.59-.943 4.931-.621 1.334-1.469 2.345-2.545 3.034-1.068.682-2.265 1.023-3.591 1.023-.939 0-1.739-.155-2.398-.466-.651-.31-1.185-.7-1.602-1.17a5.943 5.943 0 01-.955-1.444h-.216V33h-4.772zm4.738-8.727c0 1.038.144 1.943.432 2.716.288.772.705 1.375 1.25 1.806.546.425 1.209.637 1.989.637.788 0 1.454-.216 2-.648.545-.44.958-1.045 1.238-1.818.288-.78.432-1.678.432-2.693 0-1.008-.14-1.894-.42-2.66-.28-.764-.693-1.363-1.239-1.795-.545-.432-1.216-.648-2.011-.648-.788 0-1.455.209-2 .625-.538.417-.951 1.008-1.239 1.773-.288.765-.432 1.667-.432 2.705z" fill="#47443F"/></svg>