<svg width="20" height="20" fill="none" xmlns="http://www.w3.org/2000/svg"><path d="M3.962.377H2.037a.965.965 0 00-.962.962v1.492h3.849V1.339a.965.965 0 00-.962-.962zM1.075 18.66c0 .53.433.963.962.963h1.925a.965.965 0 00.962-.962V7.32h-3.85v11.34zM.962 6.038h4.074c.53 0 .962-.433.962-.962a.965.965 0 00-.962-.962H.962A.965.965 0 000 5.076c0 .53.433.962.962.962zM11.933 1.34a.965.965 0 00-.963-.963H9.046a.965.965 0 00-.962.962v10.73h3.849V1.339zM8.084 18.66c0 .53.433.963.962.963h1.924c.53 0 .963-.433.963-.962V16.56h-3.85v2.1zm3.945-3.383c.53 0 .962-.433.962-.963a.965.965 0 00-.962-.962H7.97a.965.965 0 00-.962.962c0 .53.433.963.962.963h4.058zm5.934-14.9h-1.925a.965.965 0 00-.962.962v4.7h3.85v-4.7a.965.965 0 00-.963-.962zm0 19.246c.53 0 .962-.433.962-.962v-8.132h-3.849v8.132c0 .529.433.962.962.962h1.925zm1.075-12.301h-4.074a.965.965 0 00-.962.962c0 .53.433.962.962.962h4.074A.965.965 0 0020 8.284a.965.965 0 00-.962-.962z" fill="#000"/></svg>