<svg width="18" height="18" fill="none" xmlns="http://www.w3.org/2000/svg"><circle cx="9" cy="9" r="9" fill="#2F89CE"/><path d="M4.208 9.168l2.069.772.806 2.595c.035.175.246.21.386.105l1.157-.947c.106-.105.281-.105.421 0l2.07 1.508c.14.106.35.035.385-.14l1.543-7.365c.035-.175-.14-.35-.315-.28L4.208 8.712c-.21.07-.21.386 0 .456zm2.77.386l4.068-2.49c.07-.035.14.07.07.105l-3.331 3.122c-.105.105-.21.245-.21.42l-.106.842c0 .105-.175.14-.21 0l-.421-1.543c-.105-.175-.035-.386.14-.456z" fill="#fff"/></svg>