<svg width="14" height="11" fill="none" xmlns="http://www.w3.org/2000/svg"><path d="M13.535 4.185c0-.291-.049-.63-.049-1.018a67.146 67.146 0 00-.145-1.115c-.097-.388-.242-.68-.533-.922a1.638 1.638 0 00-.922-.436C10.771.548 9.123.5 6.892.5c-2.23 0-3.927.048-4.994.194a1.634 1.634 0 00-.92.436 1.935 1.935 0 00-.534.922 3.874 3.874 0 00-.146 1.115A7.87 7.87 0 00.25 4.185v2.23c0 .291.048.63.048 1.018.049.388.097.776.146 1.115.097.388.242.68.533.922.243.242.582.388.921.436 1.116.146 2.764.194 4.994.194s3.928-.048 4.994-.194c.34-.048.68-.194.922-.436.242-.243.436-.534.533-.922a3.88 3.88 0 00.145-1.115c.049-.388.049-.727.049-1.018v-2.23zM9.462 5.688l-3.83 2.376a.37.37 0 01-.243.097c-.097 0-.145 0-.242-.049a.51.51 0 01-.242-.436v-4.8a.51.51 0 01.242-.437.44.44 0 01.485 0l3.83 2.376c.146.097.243.243.243.388 0 .145-.097.388-.243.485z" fill="#fff"/></svg>