<svg width="20" height="20" fill="none" xmlns="http://www.w3.org/2000/svg"><path d="M5.467.622A.62.62 0 004.846 0H.66a.62.62 0 00-.622.622v4.187a.62.62 0 00.622.622h4.188a.62.62 0 00.621-.622V.622h-.002zm7.246 0A.62.62 0 0012.092 0H7.906a.62.62 0 00-.622.622v4.187a.62.62 0 00.622.622h4.186a.62.62 0 00.621-.622V.622zm7.247 0A.62.62 0 0019.338 0h-4.186a.62.62 0 00-.621.622v4.187a.62.62 0 00.621.622h4.188a.62.62 0 00.622-.622V.622h-.002zM5.467 7.907a.62.62 0 00-.621-.621H.66a.62.62 0 00-.622.621v4.186a.62.62 0 00.622.621h4.188a.62.62 0 00.621-.621V7.907h-.002zm7.246 0a.62.62 0 00-.621-.621H7.906a.62.62 0 00-.622.621v4.186a.62.62 0 00.622.621h4.186a.62.62 0 00.621-.621V7.907zm7.247 0a.62.62 0 00-.622-.621h-4.186a.62.62 0 00-.621.621v4.186a.62.62 0 00.621.621h4.188a.62.62 0 00.622-.621V7.907h-.002zM4.846 14.569H.66a.62.62 0 00-.622.622v4.187A.62.62 0 00.66 20h4.188a.62.62 0 00.621-.622v-4.187a.625.625 0 00-.623-.622zm7.246 0H7.906a.62.62 0 00-.622.622v4.187a.62.62 0 00.622.622h4.186a.62.62 0 00.621-.622v-4.187a.622.622 0 00-.621-.622zm7.246 0h-4.186a.62.62 0 00-.621.622v4.187a.62.62 0 00.621.622h4.188a.62.62 0 00.622-.622v-4.187a.625.625 0 00-.624-.622z" fill="#000"/></svg>