<svg width="18" height="18" fill="none" xmlns="http://www.w3.org/2000/svg"><circle cx="9" cy="9" r="9" fill="#7C509A"/><path d="M11.814 4.746a13.943 13.943 0 00-5.211 0c-.759.163-1.715 1.08-1.88 1.801a10.291 10.291 0 000 4.258c.198.72 1.154 1.638 1.88 1.802.033 0 .066.033.066.065v2.064c0 .098.132.164.198.065l.99-1.015s.79-.819.923-.95c0 0 .033-.033.066-.033.99.033 2.012-.065 3.001-.229.759-.164 1.715-1.08 1.88-1.801a10.29 10.29 0 000-4.259c-.198-.687-1.154-1.605-1.913-1.768zm.033 6.158c-.165.327-.363.59-.692.753l-.297.098a4.17 4.17 0 01-.33-.098C9.472 11.23 8.483 10.642 7.69 9.79a7.877 7.877 0 01-1.088-1.638c-.132-.295-.264-.557-.363-.851-.099-.263.066-.525.23-.721a1.53 1.53 0 01.595-.426c.164-.098.33-.033.461.098.264.328.528.655.726 1.016.132.23.099.491-.132.655a.587.587 0 00-.165.13c-.033.034-.099.066-.132.132a.316.316 0 00-.033.295c.264.753.759 1.343 1.517 1.67a.783.783 0 00.396.098c.231-.032.33-.294.495-.425.165-.131.363-.131.56-.033.166.098.33.23.529.36.164.131.33.23.494.36.1.066.132.23.066.394zm-1.385-2.457c-.066 0-.033 0 0 0-.132 0-.165-.066-.198-.164 0-.065 0-.164-.033-.23a.622.622 0 00-.23-.36l-.199-.098c-.099-.032-.165-.032-.264-.032-.099-.033-.132-.099-.132-.197 0-.065.1-.131.165-.131.528.033.924.328.99.95v.13c0 .066-.033.132-.1.132zm-.33-1.441a2.473 2.473 0 00-.528-.164c-.066 0-.165-.033-.23-.033-.1 0-.165-.065-.133-.164 0-.098.066-.163.165-.13.33.032.627.098.924.229.594.295.924.786 1.022 1.44v.428c-.033.13-.263.163-.296 0 0-.033-.033-.099-.033-.131a1.9 1.9 0 00-.198-.852 1.77 1.77 0 00-.693-.622zm1.781 1.965c-.099 0-.165-.098-.165-.197 0-.196-.033-.393-.066-.59-.132-1.047-.99-1.899-2.012-2.063-.165-.032-.33-.032-.461-.065-.1 0-.231 0-.264-.131-.033-.098.066-.197.165-.197h.066c1.352.033.065 0 0 0 1.385.033 2.54.95 2.77 2.326.033.23.066.458.066.72.066.099 0 .197-.099.197z" fill="#fff"/></svg>