<svg width="18" height="18" fill="none" xmlns="http://www.w3.org/2000/svg"><circle cx="9" cy="9" r="9" fill="#48C95F"/><path d="M12.567 5.428A4.693 4.693 0 009.241 4.05a4.7 4.7 0 00-4.708 4.692c0 .82.23 1.64.626 2.33L4.5 13.5l2.502-.656a4.813 4.813 0 002.24.558 4.7 4.7 0 004.708-4.693c-.033-1.214-.494-2.395-1.383-3.28zm-1.054 4.988c-.098.262-.56.525-.79.557a1.847 1.847 0 01-.724-.032c-.165-.066-.395-.132-.659-.263-1.185-.492-1.942-1.673-2.008-1.772-.066-.065-.494-.623-.494-1.214 0-.59.296-.853.395-.984.099-.131.23-.131.33-.131h.23c.066 0 .164-.033.263.196.099.23.33.82.362.854a.209.209 0 010 .196.686.686 0 01-.131.197c-.066.066-.132.164-.165.197-.066.066-.132.131-.066.23.066.131.296.492.659.82.46.394.823.525.955.59.131.066.197.034.263-.032s.296-.328.362-.46c.066-.13.165-.098.264-.065.098.033.691.328.79.394.131.065.197.098.23.131.033.098.033.328-.066.59z" fill="#fff"/></svg>